<svg width="512" height="512" viewBox="-6 -6 76 76" fill="none" xmlns="http://www.w3.org/2000/svg" role="img" aria-label="Seaglass">
  <defs>
    <linearGradient id="sg-glass" x1="18%" y1="14%" x2="80%" y2="92%">
      <stop offset="0%" stop-color="oklch(0.80 0.08 168)"></stop>
      <stop offset="55%" stop-color="oklch(0.66 0.10 177)"></stop>
      <stop offset="100%" stop-color="oklch(0.53 0.09 184)"></stop>
    </linearGradient>
  </defs>
  <g transform="rotate(-4 32 32)">
    <path d="M20 11 C33 7 46 14 54 30 C50 41 40 52 26 54 C14 50 8 37 10 27 C12 18 14 14 20 11 Z" fill="url(#sg-glass)"></path>
    <path d="M20 11 C33 7 46 14 54 30 C50 41 40 52 26 54 C14 50 8 37 10 27 C12 18 14 14 20 11 Z" fill="none" stroke="#ffffff" stroke-opacity="0.35" stroke-width="1.3"></path>
    <path d="M22 15 C32 12 42 16 47 26 C38 22 28 23 22 29 C18 33 18 40 21 45 C13 40 13 21 22 15 Z" fill="#ffffff" fill-opacity="0.14"></path>
    <circle cx="24" cy="24" r="1.5" fill="#ffffff" fill-opacity="0.5"></circle>
    <circle cx="33" cy="33" r="1.2" fill="#ffffff" fill-opacity="0.4"></circle>
    <circle cx="38" cy="22" r="1" fill="#ffffff" fill-opacity="0.45"></circle>
    <circle cx="28" cy="41" r="1.1" fill="#ffffff" fill-opacity="0.35"></circle>
    <circle cx="42" cy="38" r="0.9" fill="#ffffff" fill-opacity="0.3"></circle>
  </g>
</svg>
